<svg width="51" height="63" viewBox="0 0 51 63" fill="none" xmlns="http://www.w3.org/2000/svg">
<circle cx="26.5" cy="19.5" r="18" stroke="white" stroke-width="3"/>
<path d="M2.02617 60V51.416H0.522881V49.1938H2.02617V48.4966C2.02617 47.0877 2.36749 45.9694 3.05014 45.1415C3.74732 44.299 4.67688 43.8778 5.83884 43.8778C6.76841 43.8778 7.70524 44.103 8.64933 44.5532L8.06109 46.7537C7.84322 46.6375 7.58178 46.5431 7.27677 46.4704C6.98628 46.3833 6.71757 46.3397 6.47066 46.3397C5.45394 46.3397 4.94559 47.0224 4.94559 48.3877V49.1938H7.73429V51.416H4.94559V60H2.02617ZM13.4267 60.2179C12.1776 60.2179 11.1028 59.9492 10.2023 59.4118C9.31632 58.8598 8.63367 58.1336 8.15436 57.2331C7.67505 56.3326 7.4354 55.3594 7.4354 54.3137C7.4354 53.2534 7.67505 52.273 8.15436 51.3725C8.64819 50.4719 9.33811 49.753 10.2241 49.2156C11.1246 48.6636 12.1922 48.3877 13.4267 48.3877C14.6613 48.3877 15.7216 48.6636 16.6076 49.2156C17.5081 49.753 18.198 50.4719 18.6773 51.3725C19.1567 52.273 19.3963 53.2534 19.3963 54.3137C19.3963 55.3594 19.1567 56.3326 18.6773 57.2331C18.198 58.1336 17.5081 58.8598 16.6076 59.4118C15.7216 59.9492 14.6613 60.2179 13.4267 60.2179ZM10.442 54.3137C10.442 54.9818 10.5727 55.5773 10.8341 56.1002C11.0956 56.6085 11.4514 57.008 11.9017 57.2984C12.3519 57.5889 12.8603 57.7342 13.4267 57.7342C13.9787 57.7342 14.4798 57.5889 14.93 57.2984C15.3803 56.9934 15.7361 56.5867 15.9976 56.0784C16.2735 55.5555 16.4115 54.96 16.4115 54.2919C16.4115 53.6383 16.2735 53.0573 15.9976 52.5489C15.7361 52.0261 15.3803 51.6194 14.93 51.3289C14.4798 51.0239 13.9787 50.8714 13.4267 50.8714C12.8603 50.8714 12.3519 51.0239 11.9017 51.3289C11.4514 51.6194 11.0956 52.0261 10.8341 52.5489C10.5727 53.0573 10.442 53.6455 10.442 54.3137ZM19.4932 56.6231C19.4932 55.8823 19.6965 55.236 20.1032 54.684C20.5244 54.1176 21.1054 53.6819 21.8461 53.3768C22.5869 53.0718 23.4366 52.9193 24.3952 52.9193C24.8745 52.9193 25.361 52.9629 25.8549 53.05C26.3487 53.1227 26.7772 53.2316 27.1403 53.3768V52.7668C27.1403 52.0406 26.9224 51.4814 26.4867 51.0892C26.0655 50.6971 25.4337 50.501 24.5913 50.501C23.9667 50.501 23.3712 50.6099 22.8047 50.8278C22.2383 51.0457 21.6428 51.3652 21.0182 51.7864L20.0814 49.8692C20.8367 49.3753 21.6065 49.005 22.3908 48.7581C23.1896 48.5111 24.0248 48.3877 24.8963 48.3877C26.523 48.3877 27.7866 48.7944 28.6872 49.6077C29.6022 50.4211 30.0597 51.5831 30.0597 53.0936V56.732C30.0597 57.0515 30.1106 57.2767 30.2122 57.4074C30.3139 57.5236 30.4955 57.5962 30.7569 57.6252V60C30.4955 60.0581 30.2558 60.0944 30.0379 60.1089C29.8346 60.138 29.6603 60.1525 29.5151 60.1525C28.9341 60.1525 28.4911 60.0218 28.1861 59.7603C27.881 59.4989 27.6995 59.1794 27.6414 58.8017L27.576 58.2135C27.0677 58.8671 26.4431 59.3682 25.7024 59.7168C24.9762 60.0508 24.2281 60.2179 23.4583 60.2179C22.6885 60.2179 22.0059 60.0654 21.4104 59.7603C20.8149 59.4408 20.3428 59.0123 19.9943 58.4749C19.6602 57.923 19.4932 57.3057 19.4932 56.6231ZM26.5956 57.2113C26.9587 56.8627 27.1403 56.5286 27.1403 56.2091V55.0544C26.385 54.7494 25.6225 54.5969 24.8527 54.5969C24.0829 54.5969 23.4583 54.7639 22.979 55.098C22.4997 55.4175 22.2601 55.846 22.2601 56.3834C22.2601 56.8191 22.4344 57.2113 22.783 57.5599C23.1315 57.9085 23.6326 58.0828 24.2862 58.0828C24.722 58.0828 25.1432 58.0029 25.5499 57.8431C25.9711 57.6833 26.3197 57.4727 26.5956 57.2113ZM49.4329 60H46.5135V53.5947C46.5135 52.6942 46.3537 52.0333 46.0342 51.6121C45.7291 51.1764 45.3007 50.9585 44.7487 50.9585C44.1678 50.9585 43.6231 51.1836 43.1147 51.6339C42.6064 52.0696 42.2433 52.6434 42.0254 53.355V60H39.106V53.5947C39.106 52.6797 38.9462 52.0115 38.6267 51.5903C38.3217 51.1691 37.8932 50.9585 37.3413 50.9585C36.7748 50.9585 36.2301 51.1764 35.7072 51.6121C35.1989 52.0478 34.8358 52.6216 34.6179 53.3333V60H31.6985V48.5838H34.3347V50.6971C34.7559 49.9563 35.3296 49.3899 36.0558 48.9977C36.7966 48.591 37.639 48.3877 38.5831 48.3877C39.5272 48.3877 40.2607 48.6201 40.7836 49.0849C41.321 49.5496 41.6623 50.1234 41.8075 50.806C42.2578 50.0217 42.846 49.4262 43.5723 49.0195C44.2985 48.5983 45.1118 48.3877 46.0124 48.3877C46.7241 48.3877 47.2978 48.5184 47.7335 48.7798C48.1838 49.0268 48.5324 49.3681 48.7793 49.8038C49.0262 50.225 49.1932 50.7043 49.2804 51.2417C49.382 51.7791 49.4329 52.3238 49.4329 52.8757V60Z" fill="white"/>
</svg>
